<svg width="364.5474365234375px" height="410.022412109375px" xmlns="http://www.w3.org/2000/svg" viewBox="67.72628173828124 -130.0112060546875 364.5474365234375 410.022412109375" style="background: rgba(0, 0, 0, 0);" preserveAspectRatio="xMidYMid"><defs>
  <filter id="editing-scratch" x="-100%" y="-100%" width="300%" height="300%">
    <!-- COLOR -->
    <feFlood flood-color="#ddd" flood-opacity="0.75" result="COLOR-blu"></feFlood>
    <feFlood flood-color="#666" flood-opacity="0.4" result="COLOR-red"></feFlood>
    <!-- COLOR END -->

    <!-- Texture -->
    <feTurbulence baseFrequency=".05" type="fractalNoise" numOctaves="3" seed="0" result="Texture_10"></feTurbulence>
    <feColorMatrix type="matrix" values="0 0 0 0 0,
    0 0 0 0 0,
    0 0 0 0 0,
    0 0 0 -2.1 1.1" in="Texture_10" result="Texture_20"></feColorMatrix>

    <feColorMatrix result="Texture_30" type="matrix" values="0 0 0 0 0,
    0 0 0 0 0,
    0 0 0 0 0,
    0 0 0 -1.7 1.8" in="Texture_10"></feColorMatrix>
    <!-- Texture -->

    <!-- FILL -->
    <feOffset dx="-3" dy="4" in="SourceAlpha" result="FILL_10"></feOffset>
    <feDisplacementMap scale="17" in="FILL_10" in2="Texture_10" result="FILL_20"></feDisplacementMap>
    <feComposite operator="in" in="Texture_30" in2="FILL_20" result="FILL_40"></feComposite>
    <feComposite operator="in" in="COLOR-blu" in2="FILL_40" result="FILL_50"></feComposite>
    <!-- FILL END-->

    <!-- OUTLINE -->
    <feMorphology operator="dilate" radius="3" in="SourceGraphic" result="OUTLINE_10"></feMorphology>
    <feComposite operator="out" in="OUTLINE_10" in2="SourceGraphic" result="OUTLINE_20"></feComposite>
    <feDisplacementMap scale="7" in="OUTLINE_20" in2="Texture_10" result="OUTLINE_30"></feDisplacementMap>
    <feComposite operator="arithmetic" k2="-1" k3="1" in="Texture_20" in2="OUTLINE_30" result="OUTLINE_40"></feComposite>
    <!-- OUTLINE END-->

    <!-- BEVEL OUTLINE -->
    <feConvolveMatrix order="8,8" divisor="1" kernelMatrix="1 0 0 0 0 0 0 0 0 1 0 0 0 0 0 0 0 0 1 0 0 0 0 0 0 0 0 1 0 0 0 0 0 0 0 0 1 0 0 0 0 0 0 0 0 1 0 0 0 0 0 0 0 0 1 0 0 0 0 0 0 0 0 1 " in="SourceGraphic" result="BEVEL_10"></feConvolveMatrix>
    <feMorphology operator="dilate" radius="2" in="BEVEL_10" result="BEVEL_20"></feMorphology>
    <feComposite operator="out" in="BEVEL_20" in2="BEVEL_10" result="BEVEL_30"></feComposite>
    <feDisplacementMap scale="7" in="BEVEL_30" in2="Texture_10" result="BEVEL_40"></feDisplacementMap>
    <feComposite operator="arithmetic" k2="-1" k3="1" in="Texture_20" in2="BEVEL_40" result="BEVEL_50"></feComposite>
    <feOffset dx="-7" dy="-7" in="BEVEL_50" result="BEVEL_60"></feOffset>
    <feComposite operator="out" in="BEVEL_60" in2="OUTLINE_10" result="BEVEL_70"></feComposite>
    <!-- BEVEL OUTLINE END -->

    <!-- BEVEL FILL -->
    <feOffset dx="-9" dy="-9" in="BEVEL_10" result="BEVEL-FILL_10"></feOffset>
    <feComposite operator="out" in="BEVEL-FILL_10" in2="OUTLINE_10" result="BEVEL-FILL_20"></feComposite>
    <feDisplacementMap scale="17" in="BEVEL-FILL_20" in2="Texture_10" result="BEVEL-FILL_30"></feDisplacementMap>
    <feComposite operator="in" in="COLOR-red" in2="BEVEL-FILL_30" result="BEVEL-FILL_50"></feComposite> <!-- -->
    <!-- BEVEL FILL END-->

    <feMerge result="merge2">
     <feMergeNode in="BEVEL-FILL_50"></feMergeNode>
     <feMergeNode in="BEVEL_70"></feMergeNode>
     <feMergeNode in="FILL_50"></feMergeNode>
      <feMergeNode in="OUTLINE_40"></feMergeNode>
    </feMerge>
  </filter>
</defs>
<g filter="url(#editing-scratch)"><g transform="translate(123.82999515533447, 141.11499786376953)"><path d="M45.90-3.71L45.90-75L45.90-75Q45.31-75 43.55-75.10L43.55-75.10L43.55-75.10Q41.80-75.20 41.21-75.20L41.21-75.20L41.21-75.20Q36.52-75.20 31.64-74.41L31.64-74.41L31.64-74.41Q26.76-73.63 21.97-72.85L21.97-72.85L21.97-72.85Q17.19-72.07 12.40-71.29L12.40-71.29L12.40-71.29Q7.62-70.51 2.54-70.51L2.54-70.51L2.54-70.51Q2.54-78.32 3.32-85.94L3.32-85.94L3.32-85.94Q4.10-93.55 5.08-101.27L5.08-101.27L5.08-101.27Q6.05-108.98 6.74-116.70L6.74-116.70L6.74-116.70Q7.42-124.41 7.42-132.03L7.42-132.03L7.42-132.03Q8.20-132.03 9.38-131.64L9.38-131.64L9.38-131.64Q10.55-131.25 11.52-130.57L11.52-130.57L11.52-130.57Q12.50-129.88 13.28-129.00L13.28-129.00L13.28-129.00Q14.06-128.13 14.06-127.34L14.06-127.34L14.06-83.40L14.06-83.40Q14.26-83.40 16.60-83.11L16.60-83.11L16.60-83.11Q18.95-82.81 22.27-82.62L22.27-82.62L22.27-82.62Q25.59-82.42 29.39-82.32L29.39-82.32L29.39-82.32Q33.20-82.23 36.43-82.62L36.43-82.62L36.43-82.62Q39.65-83.01 41.89-83.79L41.89-83.79L41.89-83.79Q44.14-84.57 44.14-86.33L44.14-86.33L44.14-128.32L44.14-128.32Q44.73-128.32 46.39-127.93L46.39-127.93L46.39-127.93Q48.05-127.54 49.61-126.86L49.61-126.86L49.61-126.86Q51.17-126.17 52.34-125.39L52.34-125.39L52.34-125.39Q53.52-124.61 53.52-123.83L53.52-123.83L53.52-88.09L82.81-88.09L82.81-88.09Q82.23-85.94 81.84-83.98L81.84-83.98L81.84-83.98Q81.64-82.42 81.25-80.86L81.25-80.86L81.25-80.86Q80.86-79.30 80.47-78.71L80.47-78.71L80.47-78.71Q76.56-77.54 71.78-77.25L71.78-77.25L71.78-77.25Q66.99-76.95 62.89-76.86L62.89-76.86L62.89-76.86Q58.79-76.76 55.96-76.86L55.96-76.86L55.96-76.86Q53.13-76.95 52.93-76.95L52.93-76.95L53.52-3.71L45.90-3.71ZM93.16-48.63L93.16-48.63L93.16-48.63Q93.16-52.34 93.46-57.42L93.46-57.42L93.46-57.42Q93.75-62.50 94.63-67.97L94.63-67.97L94.63-67.97Q95.51-73.44 97.17-78.71L97.17-78.71L97.17-78.71Q98.83-83.98 101.56-88.28L101.56-88.28L101.56-88.28Q104.30-92.58 108.20-95.21L108.20-95.21L108.20-95.21Q112.11-97.85 117.58-97.85L117.58-97.85L117.58-97.85Q128.71-97.85 137.11-93.65L137.11-93.65L137.11-93.65Q145.51-89.45 150.98-82.32L150.98-82.32L150.98-82.32Q156.45-75.20 159.18-65.82L159.18-65.82L159.18-65.82Q161.91-56.45 161.91-46.09L161.91-46.09L161.91-46.09Q161.91-41.80 161.13-36.72L161.13-36.72L161.13-36.72Q160.35-31.64 158.59-26.46L158.59-26.46L158.59-26.46Q156.84-21.29 154.20-16.50L154.20-16.50L154.20-16.50Q151.56-11.72 148.05-8.01L148.05-8.01L148.05-8.01Q144.53-4.30 139.84-2.05L139.84-2.05L139.84-2.05Q135.16 0.20 129.49 0.20L129.49 0.20L129.49 0.20Q118.95 0.20 112.01-4.39L112.01-4.39L112.01-4.39Q105.08-8.98 100.88-16.02L100.88-16.02L100.88-16.02Q96.68-23.05 94.92-31.74L94.92-31.74L94.92-31.74Q93.16-40.43 93.16-48.63ZM100.98-52.54L100.98-52.54L100.98-52.54Q100.98-44.92 101.37-37.50L101.37-37.50L101.37-37.50Q101.76-30.08 104.20-24.22L104.20-24.22L104.20-24.22Q106.64-18.36 111.62-14.65L111.62-14.65L111.62-14.65Q116.60-10.94 125.78-10.94L125.78-10.94L125.78-10.94Q133.59-10.94 139.06-13.77L139.06-13.77L139.06-13.77Q144.53-16.60 147.95-21.39L147.95-21.39L147.95-21.39Q151.37-26.17 152.83-32.71L152.83-32.71L152.83-32.71Q154.30-39.26 154.30-46.68L154.30-46.68L154.30-46.68Q153.32-60.35 148.63-69.53L148.63-69.53L148.63-69.53Q143.95-78.71 137.50-83.40L137.50-83.40L137.50-83.40Q131.05-88.09 124.02-88.48L124.02-88.48L124.02-88.48Q116.99-88.87 111.33-84.96L111.33-84.96L111.33-84.96Q105.66-81.05 102.54-72.95L102.54-72.95L102.54-72.95Q99.41-64.84 100.98-52.54ZM212.89-3.71L212.89-75L212.89-75Q212.30-75 210.55-75.10L210.55-75.10L210.55-75.10Q208.79-75.20 208.20-75.20L208.20-75.20L208.20-75.20Q203.52-75.20 198.63-74.41L198.63-74.41L198.63-74.41Q193.75-73.63 188.96-72.85L188.96-72.85L188.96-72.85Q184.18-72.07 179.39-71.29L179.39-71.29L179.39-71.29Q174.61-70.51 169.53-70.51L169.53-70.51L169.53-70.51Q169.53-78.32 170.31-85.94L170.31-85.94L170.31-85.94Q171.09-93.55 172.07-101.27L172.07-101.27L172.07-101.27Q173.05-108.98 173.73-116.70L173.73-116.70L173.73-116.70Q174.41-124.41 174.41-132.03L174.41-132.03L174.41-132.03Q175.20-132.03 176.37-131.64L176.37-131.64L176.37-131.64Q177.54-131.25 178.52-130.57L178.52-130.57L178.52-130.57Q179.49-129.88 180.27-129.00L180.27-129.00L180.27-129.00Q181.05-128.13 181.05-127.34L181.05-127.34L181.05-83.40L181.05-83.40Q181.25-83.40 183.59-83.11L183.59-83.11L183.59-83.11Q185.94-82.81 189.26-82.62L189.26-82.62L189.26-82.62Q192.58-82.42 196.39-82.32L196.39-82.32L196.39-82.32Q200.20-82.23 203.42-82.62L203.42-82.62L203.42-82.62Q206.64-83.01 208.89-83.79L208.89-83.79L208.89-83.79Q211.13-84.57 211.13-86.33L211.13-86.33L211.13-128.32L211.13-128.32Q211.72-128.32 213.38-127.93L213.38-127.93L213.38-127.93Q215.04-127.54 216.60-126.86L216.60-126.86L216.60-126.86Q218.16-126.17 219.34-125.39L219.34-125.39L219.34-125.39Q220.51-124.61 220.51-123.83L220.51-123.83L220.51-88.09L249.80-88.09L249.80-88.09Q249.22-85.94 248.83-83.98L248.83-83.98L248.83-83.98Q248.63-82.42 248.24-80.86L248.24-80.86L248.24-80.86Q247.85-79.30 247.46-78.71L247.46-78.71L247.46-78.71Q243.55-77.54 238.77-77.25L238.77-77.25L238.77-77.25Q233.98-76.95 229.88-76.86L229.88-76.86L229.88-76.86Q225.78-76.76 222.95-76.86L222.95-76.86L222.95-76.86Q220.12-76.95 219.92-76.95L219.92-76.95L220.51-3.71L212.89-3.71Z" fill="#000"></path></g></g><style>text {
  font-size: 64px;
  font-family: Arial Black;
  dominant-baseline: central;
  text-anchor: middle;
}</style></svg>