<svg width="682.87255859375px" height="254.005126953125px" xmlns="http://www.w3.org/2000/svg" viewBox="-91.436279296875 -52.0025634765625 682.87255859375 254.005126953125" style="background: rgba(0, 0, 0, 0);" preserveAspectRatio="xMidYMid"><defs><filter id="editing-liquid" width="150%" height="160%" x="-25%" y="-25%"><feFlood flood-color="#5e9bcb" result="flood-1"></feFlood><feFlood flood-color="#a0d5ff" result="flood-2"></feFlood><feFlood flood-color="#0067ff" result="flood-3"></feFlood><feTurbulence baseFrequency="0.01" type="fractalNoise" numOctaves="1" seed="35" result="bs-1"></feTurbulence><feGaussianBlur stdDeviation="10" in="SourceAlpha" result="bs-2"></feGaussianBlur><feDisplacementMap scale="420" in="bs-2" in2="bs-1" result="bs-3"></feDisplacementMap><feComposite operator="in" in="flood-1" in2="bs-3" result="bs-4"></feComposite><feTurbulence baseFrequency="0.02" type="fractalNoise" numOctaves="2" seed="36" result="ms-1"></feTurbulence><feGaussianBlur in="SourceAlpha" stdDeviation="0.1" result="ms-2"></feGaussianBlur><feDisplacementMap in="ms-2" in2="ms-1" scale="35" result="ms-3"></feDisplacementMap><feComposite in="flood-3" in2="ms-3" operator="in" result="ms-4"></feComposite><feTurbulence baseFrequency="0.05" type="fractalNoise" numOctaves="1" seed="37" result="ts-1"></feTurbulence><feGaussianBlur stdDeviation="3.5" in="SourceAlpha" result="ts-2"></feGaussianBlur><feDisplacementMap scale="220" in="ts-2" in2="ts-1" result="ts-3"></feDisplacementMap><feComposite operator="in" in="flood-2" in2="ts-3" result="ts-4"></feComposite><feMerge result="le-1"><feMergeNode in="bs-4"></feMergeNode><feMergeNode in="ms-4"></feMergeNode><feMergeNode in="ts-4"></feMergeNode></feMerge><feColorMatrix type="matrix" in="le-1" result="le-2" values="0 0 0 0 0, 0 0 0 0 0, 0 0 0 0 0, 0 0 0 1 0"></feColorMatrix><feGaussianBlur stdDeviation="2" in="le-2" result="le-3"></feGaussianBlur><feSpecularLighting surfaceScale="5" specularConstant=".75" specularExponent="30" lighting-color="#white" in="le-3" result="le-4"><fePointLight x="-50" y="-100" z="400"></fePointLight></feSpecularLighting><feComposite operator="in" in="le-4" in2="le-2" result="le-5"></feComposite><feComposite operator="arithmetic" k1="0" k2="1" k3="1" k4="0" in="le-1" in2="le-5" result="le-6"></feComposite></filter></defs><g filter="url(#editing-liquid)"><g transform="translate(6.309995174407959, 138.57500076293945)"><path d="M2.81-78.75L7.27-78.75L11.72-4.45L11.72-4.45Q22.15-4.45 32.64-5.80L32.64-5.80L32.64-5.80Q43.13-7.15 54.14-8.32L54.14-8.32L54.61-4.45L54.61-4.45Q54.49-4.45 52.44-4.16L52.44-4.16L52.44-4.16Q50.39-3.87 47.05-3.46L47.05-3.46L47.05-3.46Q43.71-3.05 39.49-2.58L39.49-2.58L39.49-2.58Q35.27-2.11 31.05-1.64L31.05-1.64L31.05-1.64Q26.84-1.17 22.97-0.70L22.97-0.70L22.97-0.70Q19.10-0.23 16.29 0L16.29 0L16.29 0Q16.17 0 15.70 0.06L15.70 0.06L15.70 0.06Q15.23 0.12 14.65 0.12L14.65 0.12L14.65 0.12Q14.06 0.12 13.48 0.12L13.48 0.12L13.48 0.12Q12.89 0.12 12.54 0.12L12.54 0.12L12.54 0.12Q9.96 0.12 8.32-2.64L8.32-2.64L8.32-2.64Q6.68-5.39 5.63-10.14L5.63-10.14L5.63-10.14Q4.57-14.88 4.10-21.04L4.10-21.04L4.10-21.04Q3.63-27.19 3.40-33.87L3.40-33.87L3.40-33.87Q3.16-40.55 3.22-47.34L3.22-47.34L3.22-47.34Q3.28-54.14 3.28-60.18L3.28-60.18L3.28-60.18Q3.28-66.21 3.22-71.13L3.22-71.13L3.22-71.13Q3.16-76.05 2.81-78.75L2.81-78.75ZM60.23-21.45L60.23-21.45L60.23-21.45Q60.23-24.14 60.70-27.71L60.70-27.71L60.70-27.71Q61.17-31.29 62.23-34.92L62.23-34.92L62.23-34.92Q63.28-38.55 64.86-42.07L64.86-42.07L64.86-42.07Q66.45-45.59 68.67-48.34L68.67-48.34L68.67-48.34Q70.90-51.09 73.83-52.79L73.83-52.79L73.83-52.79Q76.76-54.49 80.39-54.49L80.39-54.49L80.39-54.49Q84.14-54.49 87.36-51.91L87.36-51.91L87.36-51.91Q90.59-49.34 92.87-45.23L92.87-45.23L92.87-45.23Q95.16-41.13 96.33-36.09L96.33-36.09L96.33-36.09Q97.50-31.05 97.27-26.25L97.27-26.25L97.27-26.25Q97.27-19.22 94.57-13.71L94.57-13.71L94.57-13.71Q91.88-8.20 87.71-4.80L87.71-4.80L87.71-4.80Q83.55-1.41 78.81-0.23L78.81-0.23L78.81-0.23Q74.06 0.94 69.90-0.88L69.90-0.88L69.90-0.88Q65.74-2.70 62.99-7.73L62.99-7.73L62.99-7.73Q60.23-12.77 60.23-21.45ZM64.57-20.98L64.57-20.98L64.57-20.98Q64.92-13.83 67.03-9.96L67.03-9.96L67.03-9.96Q69.14-6.09 72.13-4.86L72.13-4.86L72.13-4.86Q75.12-3.63 78.63-4.80L78.63-4.80L78.63-4.80Q82.15-5.98 85.20-8.96L85.20-8.96L85.20-8.96Q88.24-11.95 90.41-16.46L90.41-16.46L90.41-16.46Q92.58-20.98 92.81-26.60L92.81-26.60L92.81-26.60Q93.05-30.82 92.17-34.80L92.17-34.80L92.17-34.80Q91.29-38.79 89.71-41.89L89.71-41.89L89.71-41.89Q88.13-45 85.84-46.82L85.84-46.82L85.84-46.82Q83.55-48.63 80.63-48.63L80.63-48.63L80.63-48.63Q77.81-48.63 75.59-47.23L75.59-47.23L75.59-47.23Q73.36-45.82 71.54-43.42L71.54-43.42L71.54-43.42Q69.73-41.02 68.44-37.97L68.44-37.97L68.44-37.97Q67.15-34.92 66.27-31.88L66.27-31.88L66.27-31.88Q65.39-28.83 64.98-25.96L64.98-25.96L64.98-25.96Q64.57-23.09 64.57-20.98ZM103.13-10.08L103.13-10.08L103.13-10.08Q103.13-16.76 106.82-19.80L106.82-19.80L106.82-19.80Q110.51-22.85 116.48-22.85L116.48-22.85L116.48-22.85Q118.83-22.85 120.88-22.73L120.88-22.73L120.88-22.73Q122.93-22.62 124.80-22.15L124.80-22.15L124.80-22.15Q126.68-21.68 128.50-20.74L128.50-20.74L128.50-20.74Q130.31-19.80 132.30-18.05L132.30-18.05L132.30-18.05Q132.30-18.40 132.36-19.51L132.36-19.51L132.36-19.51Q132.42-20.63 132.42-21.91L132.42-21.91L132.42-21.91Q132.42-23.20 132.42-24.32L132.42-24.32L132.42-24.32Q132.42-25.43 132.42-25.90L132.42-25.90L132.42-25.90Q132.30-28.01 132.30-31.35L132.30-31.35L132.30-31.35Q132.30-34.69 131.78-38.20L131.78-38.20L131.78-38.20Q131.25-41.72 129.67-44.88L129.67-44.88L129.67-44.88Q128.09-48.05 124.57-49.69L124.57-49.69L124.57-49.69Q122.11-49.69 120-48.87L120-48.87L120-48.87Q117.89-48.05 115.78-47.11L115.78-47.11L115.78-47.11Q113.67-46.17 111.56-45.41L111.56-45.41L111.56-45.41Q109.45-44.65 106.99-44.65L106.99-44.65L106.99-44.65Q106.99-47.58 108.81-49.51L108.81-49.51L108.81-49.51Q110.63-51.45 113.20-52.50L113.20-52.50L113.20-52.50Q115.78-53.55 118.59-53.91L118.59-53.91L118.59-53.91Q121.41-54.26 123.52-54.26L123.52-54.26L123.52-54.26Q125.63-53.91 127.44-53.44L127.44-53.44L127.44-53.44Q129.26-52.97 130.84-51.56L130.84-51.56L130.84-51.56Q132.42-50.16 133.77-47.29L133.77-47.29L133.77-47.29Q135.12-44.41 136.11-39.26L136.11-39.26L136.11-39.26Q137.11-34.10 137.87-26.19L137.87-26.19L137.87-26.19Q138.63-18.28 139.10-6.80L139.10-6.80L139.10-6.80Q139.34-5.27 138.11-4.16L138.11-4.16L138.11-4.16Q136.88-3.05 134.77-2.29L134.77-2.29L134.77-2.29Q132.66-1.52 130.02-1.00L130.02-1.00L130.02-1.00Q127.38-0.47 124.69-0.23L124.69-0.23L124.69-0.23Q121.99 0 119.53 0.12L119.53 0.12L119.53 0.12Q117.07 0.23 115.43 0.23L115.43 0.23L115.43 0.23Q113.32 0.23 111.15-0.47L111.15-0.47L111.15-0.47Q108.98-1.17 107.17-2.52L107.17-2.52L107.17-2.52Q105.35-3.87 104.24-5.80L104.24-5.80L104.24-5.80Q103.13-7.73 103.13-10.08ZM118.36-18.28L118.36-18.28L118.36-18.28Q112.50-16.64 110.16-14.36L110.16-14.36L110.16-14.36Q107.81-12.07 108.11-9.96L108.11-9.96L108.11-9.96Q108.40-7.85 110.86-6.15L110.86-6.15L110.86-6.15Q113.32-4.45 116.84-3.93L116.84-3.93L116.84-3.93Q120.35-3.40 124.45-4.51L124.45-4.51L124.45-4.51Q128.55-5.63 132.30-8.91L132.30-8.91L132.30-8.91Q130.90-12.30 129.49-14.12L129.49-14.12L129.49-14.12Q128.09-15.94 126.45-16.88L126.45-16.88L126.45-16.88Q124.80-17.81 122.81-18.05L122.81-18.05L122.81-18.05Q120.82-18.28 118.36-18.28ZM145.43-0.59L145.43-0.59L145.43-0.59Q145.20-2.46 145.02-6.04L145.02-6.04L145.02-6.04Q144.84-9.61 144.67-14.12L144.67-14.12L144.67-14.12Q144.49-18.63 144.38-23.55L144.38-23.55L144.38-23.55Q144.26-28.48 144.14-32.93L144.14-32.93L144.14-32.93Q144.02-37.38 143.85-40.96L143.85-40.96L143.85-40.96Q143.67-44.53 143.32-46.41L143.32-46.41L143.32-46.41Q143.32-46.52 143.26-46.99L143.26-46.99L143.26-46.99Q143.20-47.46 143.14-48.05L143.14-48.05L143.14-48.05Q143.09-48.63 143.09-49.04L143.09-49.04L143.09-49.04Q143.09-49.45 143.09-49.69L143.09-49.69L143.09-49.69Q144.84-51.09 146.07-50.63L146.07-50.63L146.07-50.63Q147.30-50.16 148.13-48.57L148.13-48.57L148.13-48.57Q148.95-46.99 149.30-44.65L149.30-44.65L149.30-44.65Q149.65-42.30 149.82-39.96L149.82-39.96L149.82-39.96Q150-37.62 150-35.68L150-35.68L150-35.68Q150-33.75 150-32.93L150-32.93L150-32.93Q150.23-34.92 150.70-37.62L150.70-37.62L150.70-37.62Q151.17-40.31 152.11-43.13L152.11-43.13L152.11-43.13Q153.05-45.94 154.39-48.69L154.39-48.69L154.39-48.69Q155.74-51.45 157.73-53.55L157.73-53.55L157.73-53.55Q159.73-55.66 162.25-56.84L162.25-56.84L162.25-56.84Q164.77-58.01 168.05-57.77L168.05-57.77L168.05-57.77Q173.20-57.54 176.54-54.96L176.54-54.96L176.54-54.96Q179.88-52.38 181.82-48.05L181.82-48.05L181.82-48.05Q183.75-43.71 184.63-38.09L184.63-38.09L184.63-38.09Q185.51-32.46 185.80-26.13L185.80-26.13L185.80-26.13Q186.09-19.80 185.98-13.30L185.98-13.30L185.98-13.30Q185.86-6.80 185.86-0.82L185.86-0.82L185.86-0.82Q184.80-0.59 183.75-0.06L183.75-0.06L183.75-0.06Q182.70 0.47 181.99 0.41L181.99 0.41L181.99 0.41Q181.29 0.35 181.00-0.64L181.00-0.64L181.00-0.64Q180.70-1.64 181.17-4.57L181.17-4.57L181.17-4.57Q181.29-6.68 181.58-11.07L181.58-11.07L181.58-11.07Q181.88-15.47 181.82-20.86L181.82-20.86L181.82-20.86Q181.76-26.25 181.17-31.99L181.17-31.99L181.17-31.99Q180.59-37.73 179.00-42.48L179.00-42.48L179.00-42.48Q177.42-47.23 174.49-50.21L174.49-50.21L174.49-50.21Q171.56-53.20 166.88-53.20L166.88-53.20L166.88-53.20Q162.07-51.21 158.85-45.70L158.85-45.70L158.85-45.70Q155.63-40.20 153.69-32.81L153.69-32.81L153.69-32.81Q151.76-25.43 150.88-16.82L150.88-16.82L150.88-16.82Q150-8.20 149.88 0L149.88 0L149.88 0Q149.65-0.12 149.00-0.12L149.00-0.12L149.00-0.12Q148.36-0.12 147.60-0.18L147.60-0.18L147.60-0.18Q146.84-0.23 146.19-0.35L146.19-0.35L146.19-0.35Q145.55-0.47 145.43-0.59ZM195.12-8.91L195.12-8.91L195.12-8.91Q195.70-10.31 196.93-10.66L196.93-10.66L196.93-10.66Q198.16-11.02 199.57-8.91L199.57-8.91L199.57-8.91Q199.57-8.67 200.68-8.26L200.68-8.26L200.68-8.26Q201.80-7.85 203.50-7.32L203.50-7.32L203.50-7.32Q205.20-6.80 207.48-6.27L207.48-6.27L207.48-6.27Q209.77-5.74 211.99-5.33L211.99-5.33L211.99-5.33Q214.22-4.92 216.33-4.63L216.33-4.63L216.33-4.63Q218.44-4.34 219.96-4.34L219.96-4.34L219.96-4.34Q223.95-4.34 227.29-6.04L227.29-6.04L227.29-6.04Q230.63-7.73 233.03-10.43L233.03-10.43L233.03-10.43Q235.43-13.13 236.72-16.58L236.72-16.58L236.72-16.58Q238.01-20.04 238.01-23.67L238.01-23.67L238.01-23.67Q238.01-24.73 237.66-27.36L237.66-27.36L237.66-27.36Q237.30-30 236.48-32.64L236.48-32.64L236.48-32.64Q235.66-35.27 234.32-37.38L234.32-37.38L234.32-37.38Q232.97-39.49 231.09-39.49L231.09-39.49L231.09-39.49Q218.91-38.09 211.11-38.38L211.11-38.38L211.11-38.38Q203.32-38.67 198.75-40.20L198.75-40.20L198.75-40.20Q194.18-41.72 192.36-44.36L192.36-44.36L192.36-44.36Q190.55-46.99 190.43-50.39L190.43-50.39L190.43-50.39Q190.43-54.61 192.54-58.54L192.54-58.54L192.54-58.54Q194.65-62.46 197.93-65.51L197.93-65.51L197.93-65.51Q201.21-68.55 205.25-70.37L205.25-70.37L205.25-70.37Q209.30-72.19 213.28-72.19L213.28-72.19L213.28-72.19Q216.56-72.19 220.14-71.37L220.14-71.37L220.14-71.37Q223.71-70.55 226.76-68.85L226.76-68.85L226.76-68.85Q229.80-67.15 231.74-64.39L231.74-64.39L231.74-64.39Q233.67-61.64 233.67-57.77L233.67-57.77L233.67-57.77Q230.86-57.77 228.52-59.36L228.52-59.36L228.52-59.36Q226.17-60.94 223.83-62.70L223.83-62.70L223.83-62.70Q221.48-64.45 218.91-66.04L218.91-66.04L218.91-66.04Q216.33-67.62 212.93-67.62L212.93-67.62L212.93-67.62Q210.12-67.62 207.25-66.21L207.25-66.21L207.25-66.21Q204.38-64.80 202.09-62.58L202.09-62.58L202.09-62.58Q199.80-60.35 198.34-57.60L198.34-57.60L198.34-57.60Q196.88-54.84 196.88-51.91L196.88-51.91L196.88-51.91Q196.88-50.74 196.93-49.39L196.93-49.39L196.93-49.39Q196.99-48.05 197.46-46.82L197.46-46.82L197.46-46.82Q197.93-45.59 198.93-44.77L198.93-44.77L198.93-44.77Q199.92-43.95 201.80-43.95L201.80-43.95L233.32-43.95L233.32-43.95Q235.31-43.95 236.78-42.71L236.78-42.71L236.78-42.71Q238.24-41.48 239.24-39.61L239.24-39.61L239.24-39.61Q240.23-37.73 240.88-35.39L240.88-35.39L240.88-35.39Q241.52-33.05 241.93-30.82L241.93-30.82L241.93-30.82Q242.34-28.59 242.46-26.66L242.46-26.66L242.46-26.66Q242.58-24.73 242.58-23.67L242.58-23.67L242.58-23.67Q242.58-19.10 241.29-15.06L241.29-15.06L241.29-15.06Q240-11.02 237.42-7.79L237.42-7.79L237.42-7.79Q234.84-4.57 230.98-2.52L230.98-2.52L230.98-2.52Q227.11-0.47 222.07 0L222.07 0L222.07 0Q219.61 0.23 215.68-0.12L215.68-0.12L215.68-0.12Q211.76-0.47 207.77-1.46L207.77-1.46L207.77-1.46Q203.79-2.46 200.27-4.28L200.27-4.28L200.27-4.28Q196.76-6.09 195.12-8.91ZM276.68 48.40L271.41 48.05L271.41 48.05Q271.41 42.19 272.46 35.98L272.46 35.98L272.46 35.98Q273.52 29.77 274.63 23.55L274.63 23.55L274.63 23.55Q275.74 17.34 276.50 11.13L276.50 11.13L276.50 11.13Q277.27 4.92 276.68-1.05L276.68-1.05L247.50-50.51L247.50-50.51Q250.08-52.85 251.60-53.14L251.60-53.14L251.60-53.14Q253.13-53.44 253.36-53.20L253.36-53.20L253.36-53.20Q254.18-52.03 256.11-48.87L256.11-48.87L256.11-48.87Q258.05-45.70 260.57-41.48L260.57-41.48L260.57-41.48Q263.09-37.27 265.90-32.58L265.90-32.58L265.90-32.58Q268.71-27.89 271.23-23.67L271.23-23.67L271.23-23.67Q273.75-19.45 275.57-16.17L275.57-16.17L275.57-16.17Q277.38-12.89 278.09-11.60L278.09-11.60L283.48-55.08L289.34-52.15L276.68 48.40ZM299.77-9.49L299.77-9.49L299.77-9.49Q301.88-9.49 303.69-8.67L303.69-8.67L303.69-8.67Q305.51-7.85 307.27-6.86L307.27-6.86L307.27-6.86Q309.02-5.86 310.84-5.10L310.84-5.10L310.84-5.10Q312.66-4.34 314.77-4.34L314.77-4.34L314.77-4.34Q317.23-4.34 319.86-5.21L319.86-5.21L319.86-5.21Q322.50-6.09 324.73-7.68L324.73-7.68L324.73-7.68Q326.95-9.26 328.36-11.54L328.36-11.54L328.36-11.54Q329.77-13.83 329.77-16.52L329.77-16.52L329.77-16.52Q329.88-17.34 329.82-18.52L329.82-18.52L329.82-18.52Q329.77-19.69 329.06-20.92L329.06-20.92L329.06-20.92Q328.36-22.15 326.72-23.26L326.72-23.26L326.72-23.26Q325.08-24.38 321.97-24.96L321.97-24.96L321.97-24.96Q318.87-25.55 314.18-25.61L314.18-25.61L314.18-25.61Q309.49-25.66 302.58-24.73L302.58-24.73L302.58-24.73Q300.82-24.73 299.18-25.72L299.18-25.72L299.18-25.72Q297.54-26.72 296.25-28.18L296.25-28.18L296.25-28.18Q294.96-29.65 294.14-31.35L294.14-31.35L294.14-31.35Q293.32-33.05 293.32-34.57L293.32-34.57L293.32-34.57Q293.32-39.14 295.25-42.01L295.25-42.01L295.25-42.01Q297.19-44.88 300.23-46.58L300.23-46.58L300.23-46.58Q303.28-48.28 307.03-48.98L307.03-48.98L307.03-48.98Q310.78-49.69 314.65-49.69L314.65-49.69L314.65-49.69Q316.41-49.69 318.69-49.51L318.69-49.51L318.69-49.51Q320.98-49.34 322.91-48.57L322.91-48.57L322.91-48.57Q324.84-47.81 326.19-46.17L326.19-46.17L326.19-46.17Q327.54-44.53 327.54-41.60L327.54-41.60L327.54-41.60Q327.30-39.61 326.89-39.20L326.89-39.20L326.89-39.20Q326.48-38.79 325.72-39.43L325.72-39.43L325.72-39.43Q324.96-40.08 323.91-41.25L323.91-41.25L323.91-41.25Q322.85-42.42 321.39-43.54L321.39-43.54L321.39-43.54Q319.92-44.65 317.87-45.23L317.87-45.23L317.87-45.23Q315.82-45.82 313.24-45.23L313.24-45.23L313.24-45.23Q310.55-45.23 307.85-44.71L307.85-44.71L307.85-44.71Q305.16-44.18 302.99-42.89L302.99-42.89L302.99-42.89Q300.82-41.60 299.47-39.38L299.47-39.38L299.47-39.38Q298.13-37.15 298.13-33.75L298.13-33.75L298.13-33.75Q298.13-31.99 299.71-31.35L299.71-31.35L299.71-31.35Q301.29-30.70 303.93-30.70L303.93-30.70L303.93-30.70Q306.56-30.70 309.90-30.88L309.90-30.88L309.90-30.88Q313.24-31.05 316.76-31.05L316.76-31.05L316.76-31.05Q320.27-31.05 323.55-30.53L323.55-30.53L323.55-30.53Q326.84-30 329.36-28.42L329.36-28.42L329.36-28.42Q331.88-26.84 333.28-23.91L333.28-23.91L333.28-23.91Q334.69-20.98 334.34-16.29L334.34-16.29L334.34-16.29Q334.34-12.89 332.40-9.84L332.40-9.84L332.40-9.84Q330.47-6.80 327.48-4.51L327.48-4.51L327.48-4.51Q324.49-2.23 320.86-0.94L320.86-0.94L320.86-0.94Q317.23 0.35 313.83 0L313.83 0L313.83 0Q312.42-0.12 310.02-0.76L310.02-0.76L310.02-0.76Q307.62-1.41 305.33-2.58L305.33-2.58L305.33-2.58Q303.05-3.75 301.41-5.45L301.41-5.45L301.41-5.45Q299.77-7.15 299.77-9.49ZM354.14-42.54L354.14-42.54L354.14-42.54Q353.09-42.89 351.27-42.83L351.27-42.83L351.27-42.83Q349.45-42.77 347.40-42.60L347.40-42.60L347.40-42.60Q345.35-42.42 343.48-42.19L343.48-42.19L343.48-42.19Q341.60-41.95 340.31-41.95L340.31-41.95L340.31-41.95Q339.73-41.95 339.55-43.65L339.55-43.65L339.55-43.65Q339.38-45.35 339.02-48.28L339.02-48.28L355.55-49.45L355.55-49.45Q355.90-53.55 356.02-55.31L356.02-55.31L356.02-55.31Q356.13-57.07 356.07-58.30L356.07-58.30L356.07-58.30Q356.02-59.53 355.96-61.11L355.96-61.11L355.96-61.11Q355.90-62.70 355.90-66.09L355.90-66.09L355.90-66.09Q358.95-66.56 360.53-66.39L360.53-66.39L360.53-66.39Q362.11-66.21 362.70-65.51L362.70-65.51L362.70-65.51Q363.28-64.80 363.22-63.46L363.22-63.46L363.22-63.46Q363.16-62.11 362.87-60.12L362.87-60.12L362.87-60.12Q362.58-58.13 362.40-55.31L362.40-55.31L362.40-55.31Q362.23-52.50 362.58-48.98L362.58-48.98L376.64-49.45L376.64-43.71L376.64-43.71Q375.70-43.71 373.71-43.59L373.71-43.59L373.71-43.59Q371.72-43.48 369.43-43.36L369.43-43.36L369.43-43.36Q367.15-43.24 365.21-43.13L365.21-43.13L365.21-43.13Q363.28-43.01 362.34-42.66L362.34-42.66L362.34-42.66Q361.41-38.44 360.35-33.63L360.35-33.63L360.35-33.63Q359.30-28.83 358.95-24.14L358.95-24.14L358.95-24.14Q358.59-19.45 359.18-15.41L359.18-15.41L359.18-15.41Q359.77-11.37 362.11-8.73L362.11-8.73L362.11-8.73Q364.45-6.09 368.79-5.10L368.79-5.10L368.79-5.10Q373.13-4.10 380.27-5.74L380.27-5.74L380.27-5.74Q380.04-3.98 378.93-2.87L378.93-2.87L378.93-2.87Q377.81-1.76 376.35-1.11L376.35-1.11L376.35-1.11Q374.88-0.47 373.24-0.18L373.24-0.18L373.24-0.18Q371.60 0.12 370.31 0.12L370.31 0.12L370.31 0.12Q364.34 0.12 360.82-2.05L360.82-2.05L360.82-2.05Q357.30-4.22 355.55-7.73L355.55-7.73L355.55-7.73Q353.79-11.25 353.32-15.76L353.32-15.76L353.32-15.76Q352.85-20.27 353.03-24.96L353.03-24.96L353.03-24.96Q353.20-29.65 353.67-34.22L353.67-34.22L353.67-34.22Q354.14-38.79 354.14-42.54ZM385.08-27.54L385.08-27.54L385.08-27.54Q385.08-31.05 386.60-35.33L386.60-35.33L386.60-35.33Q388.13-39.61 390.76-43.30L390.76-43.30L390.76-43.30Q393.40-46.99 396.74-49.51L396.74-49.51L396.74-49.51Q400.08-52.03 403.71-52.03L403.71-52.03L403.71-52.03Q405.70-52.03 407.64-51.21L407.64-51.21L407.64-51.21Q409.57-50.39 411.39-49.04L411.39-49.04L411.39-49.04Q413.20-47.70 414.67-46.00L414.67-46.00L414.67-46.00Q416.13-44.30 416.95-42.42L416.95-42.42L416.95-42.42Q417.77-40.55 417.83-38.79L417.83-38.79L417.83-38.79Q417.89-37.03 416.84-35.74L416.84-35.74L392.11-31.17L392.11-31.17Q391.64-31.05 391.29-30.06L391.29-30.06L391.29-30.06Q390.94-29.06 390.70-27.54L390.70-27.54L390.70-27.54Q390.47-26.02 390.29-24.20L390.29-24.20L390.29-24.20Q390.12-22.38 390-20.68L390-20.68L390-20.68Q389.88-18.98 389.88-17.64L389.88-17.64L389.88-17.64Q389.88-16.29 389.88-15.59L389.88-15.59L389.88-15.59Q389.88-12.30 391.46-10.25L391.46-10.25L391.46-10.25Q393.05-8.20 395.51-7.15L395.51-7.15L395.51-7.15Q397.97-6.09 401.07-5.74L401.07-5.74L401.07-5.74Q404.18-5.39 407.23-5.39L407.23-5.39L407.23-5.39Q410.27-5.39 412.97-5.63L412.97-5.63L412.97-5.63Q415.66-5.86 417.42-5.86L417.42-5.86L417.42-5.86Q417.42-5.39 417.07-4.80L417.07-4.80L417.07-4.80Q416.72-4.22 416.25-3.69L416.25-3.69L416.25-3.69Q415.78-3.16 415.31-2.75L415.31-2.75L415.31-2.75Q414.84-2.34 414.73-2.23L414.73-2.23L414.73-2.23Q413.79-1.99 411.86-1.58L411.86-1.58L411.86-1.58Q409.92-1.17 407.75-0.82L407.75-0.82L407.75-0.82Q405.59-0.47 403.71-0.23L403.71-0.23L403.71-0.23Q401.84 0 401.13 0L401.13 0L401.13 0Q397.50 0.70 394.80-0.12L394.80-0.12L394.80-0.12Q392.11-0.94 390.23-2.93L390.23-2.93L390.23-2.93Q388.36-4.92 387.19-7.79L387.19-7.79L387.19-7.79Q386.02-10.66 385.43-13.95L385.43-13.95L385.43-13.95Q384.84-17.23 384.79-20.74L384.79-20.74L384.79-20.74Q384.73-24.26 385.08-27.54ZM402.07-47.58L402.07-47.58L402.07-47.58Q401.02-47.58 399.32-46.46L399.32-46.46L399.32-46.46Q397.62-45.35 396.15-43.65L396.15-43.65L396.15-43.65Q394.69-41.95 393.69-40.02L393.69-40.02L393.69-40.02Q392.70-38.09 393.05-36.68L393.05-36.68L393.05-36.68Q396.09-36.33 399.38-36.80L399.38-36.80L399.38-36.80Q402.66-37.27 405.35-38.26L405.35-38.26L405.35-38.26Q408.05-39.26 409.80-40.61L409.80-40.61L409.80-40.61Q411.56-41.95 411.50-43.36L411.50-43.36L411.50-43.36Q411.45-44.77 409.28-45.88L409.28-45.88L409.28-45.88Q407.11-46.99 402.07-47.58ZM423.75-45.70L423.75-45.70L423.75-45.70Q425.16-45.70 426.80-45L426.80-45L426.80-45Q428.44-44.30 429.14-42.19L429.14-42.19L429.14-42.19Q430.08-46.17 432.01-48.63L432.01-48.63L432.01-48.63Q433.95-51.09 436.46-52.03L436.46-52.03L436.46-52.03Q438.98-52.97 441.74-52.68L441.74-52.68L441.74-52.68Q444.49-52.38 446.89-50.98L446.89-50.98L446.89-50.98Q449.30-49.57 451.11-47.34L451.11-47.34L451.11-47.34Q452.93-45.12 453.63-42.19L453.63-42.19L453.63-42.19Q454.92-45.82 457.09-48.93L457.09-48.93L457.09-48.93Q459.26-52.03 461.89-54.14L461.89-54.14L461.89-54.14Q464.53-56.25 467.40-57.07L467.40-57.07L467.40-57.07Q470.27-57.89 472.79-57.01L472.79-57.01L472.79-57.01Q475.31-56.13 477.25-53.26L477.25-53.26L477.25-53.26Q479.18-50.39 480-45L480-45L480-45Q480.23-43.48 480.59-40.49L480.59-40.49L480.59-40.49Q480.94-37.50 481.35-33.75L481.35-33.75L481.35-33.75Q481.76-30 482.29-25.84L482.29-25.84L482.29-25.84Q482.81-21.68 483.22-17.93L483.22-17.93L483.22-17.93Q483.63-14.18 483.98-11.19L483.98-11.19L483.98-11.19Q484.34-8.20 484.57-6.80L484.57-6.80L484.57-6.80Q484.57-5.63 484.45-4.22L484.45-4.22L484.45-4.22Q484.34-2.81 483.93-1.82L483.93-1.82L483.93-1.82Q483.52-0.82 482.64-0.53L482.64-0.53L482.64-0.53Q481.76-0.23 480-1.52L480-1.52L480-1.52Q480-2.93 479.65-6.09L479.65-6.09L479.65-6.09Q479.30-9.26 478.95-13.42L478.95-13.42L478.95-13.42Q478.59-17.58 478.07-22.21L478.07-22.21L478.07-22.21Q477.54-26.84 477.01-30.94L477.01-30.94L477.01-30.94Q476.48-35.04 476.13-38.20L476.13-38.20L476.13-38.20Q475.78-41.37 475.43-42.66L475.43-42.66L475.43-42.66Q473.67-48.05 471.74-50.16L471.74-50.16L471.74-50.16Q469.80-52.27 467.87-52.03L467.87-52.03L467.87-52.03Q465.94-51.80 464.18-49.57L464.18-49.57L464.18-49.57Q462.42-47.34 461.02-43.95L461.02-43.95L461.02-43.95Q459.61-40.55 458.38-36.39L458.38-36.39L458.38-36.39Q457.15-32.23 456.50-28.13L456.50-28.13L456.50-28.13Q455.86-24.02 455.68-20.39L455.68-20.39L455.68-20.39Q455.51-16.76 456.09-14.41L456.09-14.41L451.52-13.48L451.52-13.48Q451.88-24.73 450.76-31.93L450.76-31.93L450.76-31.93Q449.65-39.14 447.71-43.01L447.71-43.01L447.71-43.01Q445.78-46.88 443.32-47.64L443.32-47.64L443.32-47.64Q440.86-48.40 438.46-46.64L438.46-46.64L438.46-46.64Q436.05-44.88 434.06-40.78L434.06-40.78L434.06-40.78Q432.07-36.68 431.07-30.88L431.07-30.88L431.07-30.88Q430.08-25.08 430.31-17.81L430.31-17.81L430.31-17.81Q430.55-10.55 432.77-2.23L432.77-2.23L428.32-2.23L428.32-2.23Q428.32-2.23 428.03-4.45L428.03-4.45L428.03-4.45Q427.73-6.68 427.32-10.14L427.32-10.14L427.32-10.14Q426.91-13.59 426.45-17.99L426.45-17.99L426.45-17.99Q425.98-22.38 425.51-26.89L425.51-26.89L425.51-26.89Q425.04-31.41 424.57-35.57L424.57-35.57L424.57-35.57Q424.10-39.73 423.75-42.66L423.75-42.66L423.75-42.66Q423.75-43.01 423.75-44.24L423.75-44.24L423.75-44.24Q423.75-45.47 423.75-45.70Z" fill="#444"></path></g></g><style>text {
  font-size: 64px;
  font-family: Arial Black;
  dominant-baseline: central;
  text-anchor: middle;
}</style></svg>